ply
format ascii 1.0
comment Created by integrated-simworld2
element vertex 8
property float x
property float y
property float z
element face 10
property list uchar uint vertex_indices
end_header
186.295563 -173.257065 0
210.949875 -176.139877 0
210.949875 -176.139877 16.519825
186.295563 -173.257065 16.519825
187.768784 -160.689072 0
187.768784 -160.689072 16.519825
212.412994 -163.571884 0
212.412994 -163.571884 16.519825
3 0 1 2
3 0 2 3
3 4 0 3
3 4 3 5
3 1 6 7
3 1 7 2
3 2 7 5
3 2 5 3
3 6 4 5
3 6 5 7
