ply
format ascii 1.0
comment Created by integrated-simworld2
element vertex 26
property float x
property float y
property float z
element face 37
property list uchar uint vertex_indices
end_header
-146.772873 -37.2028618 0
-126.185936 -52.2423286 0
-126.185936 -52.2423286 4.68824053
-146.772873 -37.2028618 4.68824053
-129.273636 -13.258214 0
-129.273636 -13.258214 4.68824053
-118.506119 -49.6709175 0
-118.506119 -49.6709175 4.68824053
-116.185043 -51.7192154 4.68824053
-110.785927 -45.7414017 4.68824053
-122.905746 -9.68491745 4.68824053
-148.972122 30.7354488 4.68824053
-153.775711 33.963768 4.68824053
-164.846054 51.1182289 4.68824053
-184.595551 38.3835297 4.68824053
-174.150909 22.1752777 4.68824053
-176.209625 21.01758 4.68824053
-116.185043 -51.7192154 0
-110.785927 -45.7414017 0
-122.905746 -9.68491745 0
-148.972122 30.7354488 0
-153.775711 33.963768 0
-164.846054 51.1182289 0
-184.595551 38.3835297 0
-174.150909 22.1752777 0
-176.209625 21.01758 0
3 0 1 2
3 0 2 3
3 4 0 3
3 4 3 5
3 1 6 7
3 1 7 2
3 2 7 8
3 2 8 9
3 2 9 10
3 2 10 11
3 2 11 12
3 2 12 13
3 2 13 14
3 2 14 15
3 2 15 16
3 2 16 5
3 2 5 3
3 6 17 8
3 6 8 7
3 17 18 9
3 17 9 8
3 18 19 10
3 18 10 9
3 19 20 11
3 19 11 10
3 20 21 12
3 20 12 11
3 21 22 13
3 21 13 12
3 22 23 14
3 22 14 13
3 23 24 15
3 23 15 14
3 24 25 16
3 24 16 15
3 25 4 5
3 25 5 16
