ply
format ascii 1.0
comment Created by integrated-simworld2
element vertex 8
property float x
property float y
property float z
element face 10
property list uchar uint vertex_indices
end_header
-116.445908 126.425369 0
-122.369759 116.117233 0
-122.369759 116.117233 7.50239897
-116.445908 126.425369 7.50239897
-95.2032166 114.224586 0
-95.2032166 114.224586 7.50239897
-101.127052 103.916443 0
-101.127052 103.916443 7.50239897
3 0 1 2
3 0 2 3
3 4 0 3
3 4 3 5
3 1 6 7
3 1 7 2
3 2 7 5
3 2 5 3
3 6 4 5
3 6 5 7
