ply
format ascii 1.0
comment Created by integrated-simworld2
element vertex 12
property float x
property float y
property float z
element face 16
property list uchar uint vertex_indices
end_header
-91.2175674 34.2749023 0
-108.171631 23.2543964 0
-108.171631 23.2543964 4.93687487
-91.2175674 34.2749023 4.93687487
-85.3140106 25.1800613 0
-85.3140106 25.1800613 4.93687487
-106.314781 20.3934708 0
-106.314781 20.3934708 4.93687487
-108.777161 18.8016205 4.93687487
-104.740547 12.589962 4.93687487
-108.777161 18.8016205 0
-104.740547 12.589962 0
3 0 1 2
3 0 2 3
3 4 0 3
3 4 3 5
3 1 6 7
3 1 7 2
3 2 7 8
3 2 8 9
3 2 9 5
3 2 5 3
3 6 10 8
3 6 8 7
3 10 11 9
3 10 9 8
3 11 4 5
3 11 5 9
