ply
format ascii 1.0
comment Created by integrated-simworld2
element vertex 8
property float x
property float y
property float z
element face 10
property list uchar uint vertex_indices
end_header
127.520538 -135.086288 0
123.191528 -175.417374 0
123.191528 -175.417374 16.5536842
127.520538 -135.086288 16.5536842
140.781143 -136.978577 0
140.781143 -136.978577 16.5536842
136.179703 -177.042511 0
136.179703 -177.042511 16.5536842
3 0 1 2
3 0 2 3
3 4 0 3
3 4 3 5
3 1 6 7
3 1 7 2
3 2 7 5
3 2 5 3
3 6 4 5
3 6 5 7
