ply
format ascii 1.0
comment Created by integrated-simworld2
element vertex 20
property float x
property float y
property float z
element face 28
property list uchar uint vertex_indices
end_header
-191.316177 68.2283783 0
-198.723495 63.842495 0
-198.723495 63.842495 4.31402588
-191.316177 68.2283783 4.31402588
-175.755203 44.0829735 0
-175.755203 44.0829735 4.31402588
-200.257385 66.213623 0
-200.257385 66.213623 4.31402588
-193.031708 70.8778076 4.31402588
-198.783813 79.7945786 4.31402588
-210.167282 71.2120209 4.31402588
-197.018188 51.0073357 4.31402588
-194.242966 52.4989777 4.31402588
-184.595551 38.3835297 4.31402588
-193.031708 70.8778076 0
-198.783813 79.7945786 0
-210.167282 71.2120209 0
-197.018188 51.0073357 0
-194.242966 52.4989777 0
-184.595551 38.3835297 0
3 0 1 2
3 0 2 3
3 4 0 3
3 4 3 5
3 1 6 7
3 1 7 2
3 2 7 8
3 2 8 9
3 2 9 10
3 2 10 11
3 2 11 12
3 2 12 13
3 2 13 5
3 2 5 3
3 6 14 8
3 6 8 7
3 14 15 9
3 14 9 8
3 15 16 10
3 15 10 9
3 16 17 11
3 16 11 10
3 17 18 12
3 17 12 11
3 18 19 13
3 18 13 12
3 19 4 5
3 19 5 13
