ply
format ascii 1.0
comment Created by integrated-simworld2
element vertex 12
property float x
property float y
property float z
element face 16
property list uchar uint vertex_indices
end_header
0.828379273 8.15904617 0
-8.28440285 1.78044176 0
-8.28440285 1.78044176 7.49738932
0.828379273 8.15904617 7.49738932
2.19075465 7.91414356 0
2.19075465 7.91414356 7.49738932
-1.98719883 -7.22530746 0
-1.98719883 -7.22530746 7.49738932
7.12558603 -0.84669894 7.49738932
7.36778545 0.511398971 7.49738932
7.12558603 -0.84669894 0
7.36778545 0.511398971 0
3 0 1 2
3 0 2 3
3 4 0 3
3 4 3 5
3 1 6 7
3 1 7 2
3 2 7 8
3 2 8 9
3 2 9 5
3 2 5 3
3 6 10 8
3 6 8 7
3 10 11 9
3 10 9 8
3 11 4 5
3 11 5 9
