ply
format ascii 1.0
comment Created by integrated-simworld2
element vertex 20
property float x
property float y
property float z
element face 28
property list uchar uint vertex_indices
end_header
124.401436 -53.6783676 0
123.230888 -63.8195839 0
123.230888 -63.8195839 18.0626431
124.401436 -53.6783676 18.0626431
126.823456 -53.9566422 0
126.823456 -53.9566422 18.0626431
174.073059 -69.6855698 0
174.073059 -69.6855698 18.0626431
175.627014 -56.215889 18.0626431
161.216034 -54.5574074 18.0626431
161.841644 -49.1584053 18.0626431
141.345352 -46.7986565 18.0626431
140.729813 -52.1419983 18.0626431
127.206909 -50.5836601 18.0626431
175.627014 -56.215889 0
161.216034 -54.5574074 0
161.841644 -49.1584053 0
141.345352 -46.7986565 0
140.729813 -52.1419983 0
127.206909 -50.5836601 0
3 0 1 2
3 0 2 3
3 4 0 3
3 4 3 5
3 1 6 7
3 1 7 2
3 2 7 8
3 2 8 9
3 2 9 10
3 2 10 11
3 2 11 12
3 2 12 13
3 2 13 5
3 2 5 3
3 6 14 8
3 6 8 7
3 14 15 9
3 14 9 8
3 15 16 10
3 15 10 9
3 16 17 11
3 16 11 10
3 17 18 12
3 17 12 11
3 18 19 13
3 18 13 12
3 19 4 5
3 19 5 13
