ply
format ascii 1.0
comment Created by integrated-simworld2
element vertex 8
property float x
property float y
property float z
element face 10
property list uchar uint vertex_indices
end_header
120.900108 -109.850212 0
118.740601 -124.945152 0
118.740601 -124.945152 18.2005291
120.900108 -109.850212 18.2005291
168.331451 -116.629066 0
168.331451 -116.629066 18.2005291
166.171997 -131.724014 0
166.171997 -131.724014 18.2005291
3 0 1 2
3 0 2 3
3 4 0 3
3 4 3 5
3 1 6 7
3 1 7 2
3 2 7 5
3 2 5 3
3 6 4 5
3 6 5 7
