ply
format ascii 1.0
comment Created by integrated-simworld2
element vertex 8
property float x
property float y
property float z
element face 10
property list uchar uint vertex_indices
end_header
-20.6670952 -136.077606 0
-17.8918571 -136.033081 0
-17.8918571 -136.033081 4.18708181
-20.6670952 -136.077606 4.18708181
-20.7276402 -132.827072 0
-20.7276402 -132.827072 4.18708181
-17.9524021 -132.782547 0
-17.9524021 -132.782547 4.18708181
3 0 1 2
3 0 2 3
3 4 0 3
3 4 3 5
3 1 6 7
3 1 7 2
3 2 7 5
3 2 5 3
3 6 4 5
3 6 5 7
