ply
format ascii 1.0
comment Created by integrated-simworld2
element vertex 36
property float x
property float y
property float z
element face 52
property list uchar uint vertex_indices
end_header
47.0676651 224.686676 0
37.1678772 231.388077 0
37.1678772 231.388077 105.250214
47.0676651 224.686676 105.250214
46.2401657 223.451019 0
46.2401657 223.451019 105.250214
23.4030972 211.049973 0
23.4030972 211.049973 105.250214
32.4854813 204.894028 105.250214
33.3432579 206.163071 105.250214
38.3587532 202.767838 105.250214
37.2385979 201.1203 105.250214
43.0210571 197.201874 105.250214
44.2522163 199.016388 105.250214
47.2595024 196.979248 105.250214
56.422554 210.515732 105.250214
56.1500816 210.704971 105.250214
59.1068802 215.06871 105.250214
56.0087738 217.172638 105.250214
56.9069138 218.486206 105.250214
51.0134544 222.47142 105.250214
49.9740334 220.924088 105.250214
32.4854813 204.894028 0
33.3432579 206.163071 0
38.3587532 202.767838 0
37.2385979 201.1203 0
43.0210571 197.201874 0
44.2522163 199.016388 0
47.2595024 196.979248 0
56.422554 210.515732 0
56.1500816 210.704971 0
59.1068802 215.06871 0
56.0087738 217.172638 0
56.9069138 218.486206 0
51.0134544 222.47142 0
49.9740334 220.924088 0
3 0 1 2
3 0 2 3
3 4 0 3
3 4 3 5
3 1 6 7
3 1 7 2
3 2 7 8
3 2 8 9
3 2 9 10
3 2 10 11
3 2 11 12
3 2 12 13
3 2 13 14
3 2 14 15
3 2 15 16
3 2 16 17
3 2 17 18
3 2 18 19
3 2 19 20
3 2 20 21
3 2 21 5
3 2 5 3
3 6 22 8
3 6 8 7
3 22 23 9
3 22 9 8
3 23 24 10
3 23 10 9
3 24 25 11
3 24 11 10
3 25 26 12
3 25 12 11
3 26 27 13
3 26 13 12
3 27 28 14
3 27 14 13
3 28 29 15
3 28 15 14
3 29 30 16
3 29 16 15
3 30 31 17
3 30 17 16
3 31 32 18
3 31 18 17
3 32 33 19
3 32 19 18
3 33 34 20
3 33 20 19
3 34 35 21
3 34 21 20
3 35 4 5
3 35 5 21
