ply
format ascii 1.0
comment Created by integrated-simworld2
element vertex 20
property float x
property float y
property float z
element face 28
property list uchar uint vertex_indices
end_header
-29.3961773 5.26477098 0
-45.7043228 4.00690508 0
-45.7043228 4.00690508 4.20753384
-29.3961773 5.26477098 4.20753384
-28.9622478 -0.412524134 0
-28.9622478 -0.412524134 4.20753384
-44.2713661 -14.6057186 0
-44.2713661 -14.6057186 4.20753384
-36.0970993 -13.9823532 4.20753384
-36.2484703 -12.0787897 4.20753384
-28.1044788 -11.4554195 4.20753384
-28.3971291 -7.68168831 4.20753384
-24.5017395 -7.39226484 4.20753384
-25.0668602 -0.111969203 4.20753384
-36.0970993 -13.9823532 0
-36.2484703 -12.0787897 0
-28.1044788 -11.4554195 0
-28.3971291 -7.68168831 0
-24.5017395 -7.39226484 0
-25.0668602 -0.111969203 0
3 0 1 2
3 0 2 3
3 4 0 3
3 4 3 5
3 1 6 7
3 1 7 2
3 2 7 8
3 2 8 9
3 2 9 10
3 2 10 11
3 2 11 12
3 2 12 13
3 2 13 5
3 2 5 3
3 6 14 8
3 6 8 7
3 14 15 9
3 14 9 8
3 15 16 10
3 15 10 9
3 16 17 11
3 16 11 10
3 17 18 12
3 17 12 11
3 18 19 13
3 18 13 12
3 19 4 5
3 19 5 13
