ply
format ascii 1.0
comment Created by integrated-simworld2
element vertex 18
property float x
property float y
property float z
element face 23
property list uchar uint vertex_indices
end_header
-18.8904171 244.45694 0
-10.9859829 256 0
-10.9859829 256 96.8658447
-18.8904171 244.45694 96.8658447
-21.8976803 246.516357 0
-21.8976803 246.516357 96.8658447
-37.8567085 256 96.8658447
-32.5542831 252.37178 96.8658447
-31.8680611 253.373657 96.8658447
-26.9837856 250.034058 96.8658447
-27.9525719 248.6203 96.8658447
-22.846283 245.124863 96.8658447
-37.8567085 256 0
-32.5542831 252.37178 0
-31.8680611 253.373657 0
-26.9837856 250.034058 0
-27.9525719 248.6203 0
-22.846283 245.124863 0
3 0 1 2
3 0 2 3
3 4 0 3
3 4 3 5
3 2 6 7
3 2 7 8
3 2 8 9
3 2 9 10
3 2 10 11
3 2 11 5
3 2 5 3
3 12 13 7
3 12 7 6
3 13 14 8
3 13 8 7
3 14 15 9
3 14 9 8
3 15 16 10
3 15 10 9
3 16 17 11
3 16 11 10
3 17 4 5
3 17 5 11
