ply
format ascii 1.0
comment Created by integrated-simworld2
element vertex 8
property float x
property float y
property float z
element face 10
property list uchar uint vertex_indices
end_header
193.144028 100.934074 0
210.360275 101.89167 0
210.360275 101.89167 20.9036484
193.144028 100.934074 20.9036484
193.063278 102.370094 0
193.063278 102.370094 20.9036484
210.289612 103.32769 0
210.289612 103.32769 20.9036484
3 0 1 2
3 0 2 3
3 4 0 3
3 4 3 5
3 1 6 7
3 1 7 2
3 2 7 5
3 2 5 3
3 6 4 5
3 6 5 7
