ply
format ascii 1.0
comment Created by integrated-simworld2
element vertex 24
property float x
property float y
property float z
element face 34
property list uchar uint vertex_indices
end_header
39.8730011 24.6677837 0
33.9088097 33.2171059 0
33.9088097 33.2171059 3.93263268
39.8730011 24.6677837 3.93263268
38.1069641 23.4321327 0
38.1069641 23.4321327 3.93263268
29.5996819 30.8571224 0
29.5996819 30.8571224 3.93263268
27.9244614 33.2616196 3.93263268
24.3419304 30.7457924 3.93263268
25.3510971 29.2986412 3.93263268
19.7300529 25.3579216 3.93263268
30.8309116 9.49491501 3.93263268
40.4280663 16.2075043 3.93263268
37.3601913 20.6046162 3.93263268
39.186779 21.8847961 3.93263268
27.9244614 33.2616196 0
24.3419304 30.7457924 0
25.3510971 29.2986412 0
19.7300529 25.3579216 0
30.8309116 9.49491501 0
40.4280663 16.2075043 0
37.3601913 20.6046162 0
39.186779 21.8847961 0
3 0 1 2
3 0 2 3
3 4 0 3
3 4 3 5
3 1 6 7
3 1 7 2
3 2 7 8
3 2 8 9
3 2 9 10
3 2 10 11
3 2 11 12
3 2 12 13
3 2 13 14
3 2 14 15
3 2 15 5
3 2 5 3
3 6 16 8
3 6 8 7
3 16 17 9
3 16 9 8
3 17 18 10
3 17 10 9
3 18 19 11
3 18 11 10
3 19 20 12
3 19 12 11
3 20 21 13
3 20 13 12
3 21 22 14
3 21 14 13
3 22 23 15
3 22 15 14
3 23 4 5
3 23 5 15
