ply
format ascii 1.0
comment Created by integrated-simworld2
element vertex 104
property float x
property float y
property float z
element face 152
property list uchar uint vertex_indices
end_header
80.5010986 181.272217 0
78.5130768 178.344513 0
78.5130768 178.344513 7.06091881
80.5010986 181.272217 7.06091881
84.8909302 178.433609 0
84.8909302 178.433609 7.06091881
75.2534943 180.548615 0
75.2534943 180.548615 7.06091881
74.4159088 179.312958 7.06091881
68.5627899 183.264771 7.06091881
69.3902893 184.478165 7.06091881
64.5261536 187.773193 7.06091881
63.759201 186.637741 7.06091881
54.9896317 192.57103 7.06091881
56.4932594 194.786285 7.06091881
49.1264229 199.739975 7.06091881
47.2595024 196.979248 7.06091881
44.2522163 199.016388 7.06091881
43.0210571 197.201874 7.06091881
37.2385979 201.1203 7.06091881
38.3587532 202.767838 7.06091881
33.3432579 206.163071 7.06091881
32.4854813 204.894028 7.06091881
23.4030972 211.049973 7.06091881
25.5828609 214.278244 7.06091881
12.2923231 223.473206 7.06091881
11.3941793 222.103973 7.06091881
8.17498589 224.230179 7.06091881
7.19611025 222.749634 7.06091881
2.05953026 226.156006 7.06091881
2.9980402 227.569763 7.06091881
-1.52295506 230.564255 7.06091881
-2.23945212 229.473328 7.06091881
-14.2786112 237.443802 7.06091881
-10.0502682 243.822418 7.06091881
-16.4179974 248.074829 7.06091881
-18.8904171 244.45694 7.06091881
-21.8976803 246.516357 7.06091881
-22.846283 245.124863 7.06091881
-27.9525719 248.6203 7.06091881
-26.9837856 250.034058 7.06091881
-31.8680611 253.373657 7.06091881
-32.5542831 252.37178 7.06091881
-37.8567085 256 7.06091881
-93.6178894 256 7.06091881
-12.3511658 202.790054 7.06091881
6.80255985 184.923264 7.06091881
73.5886078 140.340012 7.06091881
78.4628525 138.035721 7.06091881
101.814499 172.678497 7.06091881
100.997078 173.223953 7.06091881
103.873138 177.621094 7.06091881
99.8465881 180.426315 7.06091881
96.5365982 175.628433 7.06091881
97.0714493 175.316742 7.06091881
96.7989807 174.915985 7.06091881
74.4159088 179.312958 0
68.5627899 183.264771 0
69.3902893 184.478165 0
64.5261536 187.773193 0
63.759201 186.637741 0
54.9896317 192.57103 0
56.4932594 194.786285 0
49.1264229 199.739975 0
47.2595024 196.979248 0
44.2522163 199.016388 0
43.0210571 197.201874 0
37.2385979 201.1203 0
38.3587532 202.767838 0
33.3432579 206.163071 0
32.4854813 204.894028 0
23.4030972 211.049973 0
25.5828609 214.278244 0
12.2923231 223.473206 0
11.3941793 222.103973 0
8.17498589 224.230179 0
7.19611025 222.749634 0
2.05953026 226.156006 0
2.9980402 227.569763 0
-1.52295506 230.564255 0
-2.23945212 229.473328 0
-14.2786112 237.443802 0
-10.0502682 243.822418 0
-16.4179974 248.074829 0
-18.8904171 244.45694 0
-21.8976803 246.516357 0
-22.846283 245.124863 0
-27.9525719 248.6203 0
-26.9837856 250.034058 0
-31.8680611 253.373657 0
-32.5542831 252.37178 0
-37.8567085 256 0
-93.6179047 256 0
-12.3511658 202.790054 0
6.80255985 184.923264 0
73.5886078 140.340012 0
78.4628525 138.035721 0
101.814499 172.678497 0
100.997078 173.223953 0
103.873138 177.621094 0
99.8465881 180.426315 0
96.5365982 175.628433 0
97.0714493 175.316742 0
96.7989807 174.915985 0
3 0 1 2
3 0 2 3
3 4 0 3
3 4 3 5
3 1 6 7
3 1 7 2
3 2 7 8
3 2 8 9
3 2 9 10
3 2 10 11
3 2 11 12
3 2 12 13
3 2 13 14
3 2 14 15
3 2 15 16
3 2 16 17
3 2 17 18
3 2 18 19
3 2 19 20
3 2 20 21
3 2 21 22
3 2 22 23
3 2 23 24
3 2 24 25
3 2 25 26
3 2 26 27
3 2 27 28
3 2 28 29
3 2 29 30
3 2 30 31
3 2 31 32
3 2 32 33
3 2 33 34
3 2 34 35
3 2 35 36
3 2 36 37
3 2 37 38
3 2 38 39
3 2 39 40
3 2 40 41
3 2 41 42
3 2 42 43
3 2 43 44
3 2 44 45
3 2 45 46
3 2 46 47
3 2 47 48
3 2 48 49
3 2 49 50
3 2 50 51
3 2 51 52
3 2 52 53
3 2 53 54
3 2 54 55
3 2 55 5
3 2 5 3
3 6 56 8
3 6 8 7
3 56 57 9
3 56 9 8
3 57 58 10
3 57 10 9
3 58 59 11
3 58 11 10
3 59 60 12
3 59 12 11
3 60 61 13
3 60 13 12
3 61 62 14
3 61 14 13
3 62 63 15
3 62 15 14
3 63 64 16
3 63 16 15
3 64 65 17
3 64 17 16
3 65 66 18
3 65 18 17
3 66 67 19
3 66 19 18
3 67 68 20
3 67 20 19
3 68 69 21
3 68 21 20
3 69 70 22
3 69 22 21
3 70 71 23
3 70 23 22
3 71 72 24
3 71 24 23
3 72 73 25
3 72 25 24
3 73 74 26
3 73 26 25
3 74 75 27
3 74 27 26
3 75 76 28
3 75 28 27
3 76 77 29
3 76 29 28
3 77 78 30
3 77 30 29
3 78 79 31
3 78 31 30
3 79 80 32
3 79 32 31
3 80 81 33
3 80 33 32
3 81 82 34
3 81 34 33
3 82 83 35
3 82 35 34
3 83 84 36
3 83 36 35
3 84 85 37
3 84 37 36
3 85 86 38
3 85 38 37
3 86 87 39
3 86 39 38
3 87 88 40
3 87 40 39
3 88 89 41
3 88 41 40
3 89 90 42
3 89 42 41
3 90 91 43
3 90 43 42
3 92 93 45
3 92 45 44
3 93 94 46
3 93 46 45
3 94 95 47
3 94 47 46
3 95 96 48
3 95 48 47
3 96 97 49
3 96 49 48
3 97 98 50
3 97 50 49
3 98 99 51
3 98 51 50
3 99 100 52
3 99 52 51
3 100 101 53
3 100 53 52
3 101 102 54
3 101 54 53
3 102 103 55
3 102 55 54
3 103 4 5
3 103 5 55
