ply
format ascii 1.0
comment Created by integrated-simworld2
element vertex 8
property float x
property float y
property float z
element face 10
property list uchar uint vertex_indices
end_header
226.470139 -119.834236 0
229.002884 -102.301369 0
229.002884 -102.301369 18.8408585
226.470139 -119.834236 18.8408585
177.545181 -112.755035 0
177.545181 -112.755035 18.8408585
180.077972 -95.2333145 0
180.077972 -95.2333145 18.8408585
3 0 1 2
3 0 2 3
3 4 0 3
3 4 3 5
3 1 6 7
3 1 7 2
3 2 7 5
3 2 5 3
3 6 4 5
3 6 5 7
