ply
format ascii 1.0
comment Created by integrated-simworld2
element vertex 34
property float x
property float y
property float z
element face 49
property list uchar uint vertex_indices
end_header
210.289612 103.32769 0
210.360275 101.89167 0
210.360275 101.89167 13.8539772
210.289612 103.32769 13.8539772
219.119766 103.817635 0
219.119766 103.817635 13.8539772
208.806183 101.802589 0
208.806183 101.802589 13.8539772
208.897018 100.299782 13.8539772
208.109894 98.9750671 13.8539772
207.746643 96.3813171 13.8539772
208.402634 93.8432465 13.8539772
209.976959 91.7504578 13.8539772
212.227402 90.4257965 13.8539772
214.820953 90.0584793 13.8539772
217.353943 90.7153015 13.8539772
219.452972 92.2849426 13.8539772
220.785019 94.5447464 13.8539772
221.148285 97.1273651 13.8539772
220.492279 99.6654434 13.8539772
219.261078 101.31295 13.8539772
208.897018 100.299782 0
208.109894 98.9750671 0
207.746643 96.3813171 0
208.402634 93.8432465 0
209.976959 91.7504578 0
212.227402 90.4257965 0
214.820953 90.0584793 0
217.353943 90.7153015 0
219.452972 92.2849426 0
220.785019 94.5447464 0
221.148285 97.1273651 0
220.492279 99.6654434 0
219.261078 101.31295 0
3 0 1 2
3 0 2 3
3 4 0 3
3 4 3 5
3 1 6 7
3 1 7 2
3 2 7 8
3 2 8 9
3 2 9 10
3 2 10 11
3 2 11 12
3 2 12 13
3 2 13 14
3 2 14 15
3 2 15 16
3 2 16 17
3 2 17 18
3 2 18 19
3 2 19 20
3 2 20 5
3 2 5 3
3 6 21 8
3 6 8 7
3 21 22 9
3 21 9 8
3 22 23 10
3 22 10 9
3 23 24 11
3 23 11 10
3 24 25 12
3 24 12 11
3 25 26 13
3 25 13 12
3 26 27 14
3 26 14 13
3 27 28 15
3 27 15 14
3 28 29 16
3 28 16 15
3 29 30 17
3 29 17 16
3 30 31 18
3 30 18 17
3 31 32 19
3 31 19 18
3 32 33 20
3 32 20 19
3 33 4 5
3 33 5 20
