ply
format ascii 1.0
comment Created by integrated-simworld2
element vertex 8
property float x
property float y
property float z
element face 10
property list uchar uint vertex_indices
end_header
-128.65683 116.050499 0
-111.430237 146.050949 0
-111.430237 146.050949 7.8449192
-128.65683 116.050499 7.8449192
-163.99733 136.344421 0
-163.99733 136.344421 7.8449192
-146.760605 166.344833 0
-146.760605 166.344833 7.8449192
3 0 1 2
3 0 2 3
3 4 0 3
3 4 3 5
3 1 6 7
3 1 7 2
3 2 7 5
3 2 5 3
3 6 4 5
3 6 5 7
