ply
format ascii 1.0
comment Created by integrated-simworld2
element vertex 12
property float x
property float y
property float z
element face 16
property list uchar uint vertex_indices
end_header
-107.646973 9.43964291 0
-97.9086456 -10.1081324 0
-97.9086456 -10.1081324 4.56993723
-107.646973 9.43964291 4.56993723
-104.064415 11.2318592 0
-104.064415 11.2318592 4.56993723
-77.0188065 0.300106496 0
-77.0188065 0.300106496 4.56993723
-88.4121628 23.1651993 4.56993723
-104.740547 12.589962 4.56993723
-88.4121628 23.1651993 0
-104.740547 12.589962 0
3 0 1 2
3 0 2 3
3 4 0 3
3 4 3 5
3 1 6 7
3 1 7 2
3 2 7 8
3 2 8 9
3 2 9 5
3 2 5 3
3 6 10 8
3 6 8 7
3 10 11 9
3 10 9 8
3 11 4 5
3 11 5 9
