ply
format ascii 1.0
comment Created by integrated-simworld2
element vertex 16
property float x
property float y
property float z
element face 22
property list uchar uint vertex_indices
end_header
24.0391693 36.7125168 0
23.8070641 35.9555435 0
23.8070641 35.9555435 4.43784571
24.0391693 36.7125168 4.43784571
24.7455845 37.0798721 0
24.7455845 37.0798721 4.43784571
24.1703644 35.2542305 0
24.1703644 35.2542305 4.43784571
24.9272385 35.0093307 4.43784571
25.6336536 35.3766861 4.43784571
25.8758507 36.1336594 4.43784571
25.5024586 36.8349724 4.43784571
24.9272385 35.0093307 0
25.6336536 35.3766861 0
25.8758507 36.1336594 0
25.5024586 36.8349724 0
3 0 1 2
3 0 2 3
3 4 0 3
3 4 3 5
3 1 6 7
3 1 7 2
3 2 7 8
3 2 8 9
3 2 9 10
3 2 10 11
3 2 11 5
3 2 5 3
3 6 12 8
3 6 8 7
3 12 13 9
3 12 9 8
3 13 14 10
3 13 10 9
3 14 15 11
3 14 11 10
3 15 4 5
3 15 5 11
