ply
format ascii 1.0
comment Created by integrated-simworld2
element vertex 30
property float x
property float y
property float z
element face 43
property list uchar uint vertex_indices
end_header
-22.9475269 49.0021858 0
-15.8026714 26.1705494 0
-15.8026714 26.1705494 4.26367188
-22.9475269 49.0021858 4.26367188
-25.3493385 47.9446564 0
-25.3493385 47.9446564 4.26367188
-18.4971447 25.3356552 0
-18.4971447 25.3356552 4.26367188
-17.0540447 20.7270279 4.26367188
-14.3595695 21.5730515 4.26367188
-12.5531683 15.8178329 4.26367188
-8.66787624 17.0312119 4.26367188
-7.72935343 14.0144539 4.26367188
0.132053956 16.4746113 4.26367188
-11.2008553 52.6868477 4.26367188
-18.910841 70.2642059 4.26367188
-30.1125546 65.3439026 4.26367188
-29.0125732 62.8392105 4.26367188
-31.4244747 61.7816811 4.26367188
-17.0540447 20.7270279 0
-14.3595695 21.5730515 0
-12.5531683 15.8178329 0
-8.66787624 17.0312119 0
-7.72935343 14.0144539 0
0.132053956 16.4746113 0
-11.2008553 52.6868477 0
-18.910841 70.2642059 0
-30.1125546 65.3439026 0
-29.0125732 62.8392105 0
-31.4244747 61.7816811 0
3 0 1 2
3 0 2 3
3 4 0 3
3 4 3 5
3 1 6 7
3 1 7 2
3 2 7 8
3 2 8 9
3 2 9 10
3 2 10 11
3 2 11 12
3 2 12 13
3 2 13 14
3 2 14 15
3 2 15 16
3 2 16 17
3 2 17 18
3 2 18 5
3 2 5 3
3 6 19 8
3 6 8 7
3 19 20 9
3 19 9 8
3 20 21 10
3 20 10 9
3 21 22 11
3 21 11 10
3 22 23 12
3 22 12 11
3 23 24 13
3 23 13 12
3 24 25 14
3 24 14 13
3 25 26 15
3 25 15 14
3 26 27 16
3 26 16 15
3 27 28 17
3 27 17 16
3 28 29 18
3 28 18 17
3 29 4 5
3 29 5 18
