ply
format ascii 1.0
comment Created by integrated-simworld2
element vertex 16
property float x
property float y
property float z
element face 22
property list uchar uint vertex_indices
end_header
123.835541 30.7463303 0
125.066696 33.6851768 0
125.066696 33.6851768 4.47145987
123.835541 30.7463303 4.47145987
158.056503 16.475523 0
158.056503 16.475523 4.47145987
119.61718 35.9560432 0
119.61718 35.9560432 4.47145987
118.658493 33.651722 4.47145987
116.42823 34.5867882 4.47145987
115.156708 31.5477543 4.47145987
157.057449 14.0821428 4.47145987
118.658493 33.651722 0
116.42823 34.5867882 0
115.156708 31.5477543 0
157.057449 14.0821428 0
3 0 1 2
3 0 2 3
3 4 0 3
3 4 3 5
3 1 6 7
3 1 7 2
3 2 7 8
3 2 8 9
3 2 9 10
3 2 10 11
3 2 11 5
3 2 5 3
3 6 12 8
3 6 8 7
3 12 13 9
3 12 9 8
3 13 14 10
3 13 10 9
3 14 15 11
3 14 11 10
3 15 4 5
3 15 5 11
