ply
format ascii 1.0
comment Created by integrated-simworld2
element vertex 16
property float x
property float y
property float z
element face 22
property list uchar uint vertex_indices
end_header
218.15097 103.773094 0
222.540802 104.018066 0
222.540802 104.018066 32.6911316
218.15097 103.773094 32.6911316
218.019745 106.110802 0
218.019745 106.110802 32.6911316
222.126938 111.454201 0
222.126938 111.454201 32.6911316
215.083008 111.064468 32.6911316
215.012344 112.389175 32.6911316
208.654648 112.032852 32.6911316
209.018036 105.598595 32.6911316
215.083008 111.064468 0
215.012344 112.389175 0
208.654648 112.032852 0
209.018036 105.598595 0
3 0 1 2
3 0 2 3
3 4 0 3
3 4 3 5
3 1 6 7
3 1 7 2
3 2 7 8
3 2 8 9
3 2 9 10
3 2 10 11
3 2 11 5
3 2 5 3
3 6 12 8
3 6 8 7
3 12 13 9
3 12 9 8
3 13 14 10
3 13 10 9
3 14 15 11
3 14 11 10
3 15 4 5
3 15 5 11
