ply
format ascii 1.0
comment Created by integrated-simworld2
element vertex 24
property float x
property float y
property float z
element face 34
property list uchar uint vertex_indices
end_header
218.15097 103.773094 0
218.019745 106.110802 0
218.019745 106.110802 27.1719265
218.15097 103.773094 27.1719265
185.413849 101.935837 0
185.413849 101.935837 27.1719265
209.018036 105.598595 0
209.018036 105.598595 27.1719265
208.654648 112.032852 27.1719265
215.012344 112.389175 27.1719265
215.083008 111.064468 27.1719265
218.38295 111.242638 27.1719265
218.100311 116.240875 27.1719265
180.509171 114.147522 27.1719265
180.791794 109.149284 27.1719265
184.999985 109.38311 27.1719265
208.654648 112.032852 0
215.012344 112.389175 0
215.083008 111.064468 0
218.38295 111.242638 0
218.100311 116.240875 0
180.509171 114.147522 0
180.791794 109.149284 0
184.999985 109.38311 0
3 0 1 2
3 0 2 3
3 4 0 3
3 4 3 5
3 1 6 7
3 1 7 2
3 2 7 8
3 2 8 9
3 2 9 10
3 2 10 11
3 2 11 12
3 2 12 13
3 2 13 14
3 2 14 15
3 2 15 5
3 2 5 3
3 6 16 8
3 6 8 7
3 16 17 9
3 16 9 8
3 17 18 10
3 17 10 9
3 18 19 11
3 18 11 10
3 19 20 12
3 19 12 11
3 20 21 13
3 20 13 12
3 21 22 14
3 21 14 13
3 22 23 15
3 22 15 14
3 23 4 5
3 23 5 15
