ply
format ascii 1.0
comment Created by integrated-simworld2
element vertex 36
property float x
property float y
property float z
element face 52
property list uchar uint vertex_indices
end_header
62.3160362 203.402435 0
54.9896317 192.57103 0
54.9896317 192.57103 85.9777756
62.3160362 203.402435 85.9777756
64.0013275 202.255859 0
64.0013275 202.255859 85.9777756
63.759201 186.637741 0
63.759201 186.637741 85.9777756
64.5261536 187.773193 85.9777756
69.3902893 184.478165 85.9777756
68.5627899 183.264771 85.9777756
74.4159088 179.312958 85.9777756
75.2534943 180.548615 85.9777756
78.5130768 178.344513 85.9777756
90.7136383 196.378342 85.9777756
77.5744095 205.27269 85.9777756
78.1294403 206.085327 85.9777756
77.3019333 206.653046 85.9777756
77.6046753 207.109467 85.9777756
68.6030045 213.198593 85.9777756
63.2343559 205.26149 85.9777756
65.1517487 203.959061 85.9777756
64.5261536 187.773193 0
69.3902893 184.478165 0
68.5627899 183.264771 0
74.4159088 179.312958 0
75.2534943 180.548615 0
78.5130768 178.344513 0
90.7136383 196.378342 0
77.5744095 205.27269 0
78.1294403 206.085327 0
77.3019333 206.653046 0
77.6046753 207.109467 0
68.6030045 213.198593 0
63.2343559 205.26149 0
65.1517487 203.959061 0
3 0 1 2
3 0 2 3
3 4 0 3
3 4 3 5
3 1 6 7
3 1 7 2
3 2 7 8
3 2 8 9
3 2 9 10
3 2 10 11
3 2 11 12
3 2 12 13
3 2 13 14
3 2 14 15
3 2 15 16
3 2 16 17
3 2 17 18
3 2 18 19
3 2 19 20
3 2 20 21
3 2 21 5
3 2 5 3
3 6 22 8
3 6 8 7
3 22 23 9
3 22 9 8
3 23 24 10
3 23 10 9
3 24 25 11
3 24 11 10
3 25 26 12
3 25 12 11
3 26 27 13
3 26 13 12
3 27 28 14
3 27 14 13
3 28 29 15
3 28 15 14
3 29 30 16
3 29 16 15
3 30 31 17
3 30 17 16
3 31 32 18
3 31 18 17
3 32 33 19
3 32 19 18
3 33 34 20
3 33 20 19
3 34 35 21
3 34 21 20
3 35 4 5
3 35 5 21
