ply
format ascii 1.0
comment Created by integrated-simworld2
element vertex 16
property float x
property float y
property float z
element face 20
property list uchar uint vertex_indices
end_header
-256 69.030838 0
-210.782532 93.1197052 0
-210.782532 93.1197052 6.64742279
-256 69.030838 6.64742279
-198.672424 105.520515 0
-198.672424 105.520515 6.64742279
-256 86.7331619 6.64742279
-202.103531 108.871277 6.64742279
-195.190674 115.962234 6.64742279
-203.314285 123.888298 6.64742279
-220.026245 105.888191 6.64742279
-220.026245 105.888191 0
-256 86.7331619 0
-202.103531 108.871277 0
-195.190674 115.962234 0
-203.314285 123.888298 0
3 0 1 2
3 0 2 3
3 1 4 5
3 1 5 2
3 6 3 2
3 6 2 5
3 6 5 7
3 6 7 8
3 6 8 9
3 6 9 10
3 11 12 6
3 11 6 10
3 4 13 7
3 4 7 5
3 13 14 8
3 13 8 7
3 14 15 9
3 14 9 8
3 15 11 10
3 15 10 9
