ply
format ascii 1.0
comment Created by integrated-simworld2
element vertex 8
property float x
property float y
property float z
element face 10
property list uchar uint vertex_indices
end_header
34.2217064 11.8660278 0
27.5914898 7.22398996 0
27.5914898 7.22398996 4.44068384
34.2217064 11.8660278 4.44068384
36.4418793 8.71569157 0
36.4418793 8.71569157 4.44068384
29.8116646 4.06252098 0
29.8116646 4.06252098 4.44068384
3 0 1 2
3 0 2 3
3 4 0 3
3 4 3 5
3 1 6 7
3 1 7 2
3 2 7 5
3 2 5 3
3 6 4 5
3 6 5 7
