ply
format ascii 1.0
comment Created by integrated-simworld2
element vertex 16
property float x
property float y
property float z
element face 22
property list uchar uint vertex_indices
end_header
218.574158 145.005844 0
204.597351 144.259781 0
204.597351 144.259781 4.59142208
218.574158 145.005844 4.59142208
219.42186 143.926056 0
219.42186 143.926056 4.59142208
205.172684 136.111206 0
205.172684 136.111206 4.59142208
217.827499 137.091019 4.59142208
219.421967 137.937073 4.59142208
219.825592 139.99649 4.59142208
219.72464 142.022491 4.59142208
217.827499 137.091019 0
219.421967 137.937073 0
219.825592 139.99649 0
219.72464 142.022491 0
3 0 1 2
3 0 2 3
3 4 0 3
3 4 3 5
3 1 6 7
3 1 7 2
3 2 7 8
3 2 8 9
3 2 9 10
3 2 10 11
3 2 11 5
3 2 5 3
3 6 12 8
3 6 8 7
3 12 13 9
3 12 9 8
3 13 14 10
3 13 10 9
3 14 15 11
3 14 11 10
3 15 4 5
3 15 5 11
