ply
format ascii 1.0
comment Created by integrated-simworld2
element vertex 54
property float x
property float y
property float z
element face 77
property list uchar uint vertex_indices
end_header
8.76027489 252.950607 0
4.16184378 256 0
4.16184425 256 95.0976028
8.76027489 252.950607 95.0976028
8.34652424 252.327225 0
8.34652424 252.327225 95.0976028
-1.78154111 256 95.0976028
-3.18804812 253.874557 95.0976028
-1.39176321 252.683441 95.0976028
-8.11270142 242.542236 95.0976028
-10.0502682 243.822418 95.0976028
-14.2786112 237.443802 95.0976028
-2.23945212 229.473328 95.0976028
-1.52295506 230.564255 95.0976028
2.9980402 227.569763 95.0976028
2.05953026 226.156006 95.0976028
7.19611025 222.749634 95.0976028
8.17498589 224.230179 95.0976028
11.3941793 222.103973 95.0976028
20.9205456 236.486465 95.0976028
22.1819839 235.651581 95.0976028
23.766346 238.044952 95.0976028
22.4544487 238.913239 95.0976028
23.9378967 241.150757 95.0976028
21.1021824 243.032059 95.0976028
22.0205059 244.423553 95.0976028
17.0252113 247.729736 95.0976028
15.9857893 246.160126 95.0976028
11.2528763 249.288193 95.0976028
11.7675419 250.067444 95.0976028
-1.78154111 256 0
-3.18804812 253.874557 0
-1.39176321 252.683441 0
-8.11270142 242.542236 0
-10.0502682 243.822418 0
-14.2786112 237.443802 0
-2.23945212 229.473328 0
-1.52295506 230.564255 0
2.9980402 227.569763 0
2.05953026 226.156006 0
7.19611025 222.749634 0
8.17498589 224.230179 0
11.3941793 222.103973 0
20.9205456 236.486465 0
22.1819839 235.651581 0
23.766346 238.044952 0
22.4544487 238.913239 0
23.9378967 241.150757 0
21.1021824 243.032059 0
22.0205059 244.423553 0
17.0252113 247.729736 0
15.9857893 246.160126 0
11.2528763 249.288193 0
11.7675419 250.067444 0
3 0 1 2
3 0 2 3
3 4 0 3
3 4 3 5
3 6 7 8
3 6 8 9
3 6 9 10
3 6 10 11
3 6 11 12
3 6 12 13
3 6 13 14
3 6 14 15
3 6 15 16
3 6 16 17
3 6 17 18
3 6 18 19
3 6 19 20
3 6 20 21
3 6 21 22
3 6 22 23
3 6 23 24
3 6 24 25
3 6 25 26
3 6 26 27
3 6 27 28
3 6 28 29
3 6 29 5
3 6 5 3
3 6 3 2
3 30 31 7
3 30 7 6
3 31 32 8
3 31 8 7
3 32 33 9
3 32 9 8
3 33 34 10
3 33 10 9
3 34 35 11
3 34 11 10
3 35 36 12
3 35 12 11
3 36 37 13
3 36 13 12
3 37 38 14
3 37 14 13
3 38 39 15
3 38 15 14
3 39 40 16
3 39 16 15
3 40 41 17
3 40 17 16
3 41 42 18
3 41 18 17
3 42 43 19
3 42 19 18
3 43 44 20
3 43 20 19
3 44 45 21
3 44 21 20
3 45 46 22
3 45 22 21
3 46 47 23
3 46 23 22
3 47 48 24
3 47 24 23
3 48 49 25
3 48 25 24
3 49 50 26
3 49 26 25
3 50 51 27
3 50 27 26
3 51 52 28
3 51 28 27
3 52 53 29
3 52 29 28
3 53 4 5
3 53 5 29
