ply
format ascii 1.0
comment Created by integrated-simworld2
element vertex 8
property float x
property float y
property float z
element face 10
property list uchar uint vertex_indices
end_header
-176.483475 -86.3278046 0
-170.549484 -81.9752808 0
-170.549484 -81.9752808 4.48107958
-176.483475 -86.3278046 4.48107958
-178.461426 -83.6338425 0
-178.461426 -83.6338425 4.48107958
-172.52742 -79.2813263 0
-172.52742 -79.2813263 4.48107958
3 0 1 2
3 0 2 3
3 4 0 3
3 4 3 5
3 1 6 7
3 1 7 2
3 2 7 5
3 2 5 3
3 6 4 5
3 6 5 7
