ply
format ascii 1.0
comment Created by integrated-simworld2
element vertex 8
property float x
property float y
property float z
element face 10
property list uchar uint vertex_indices
end_header
-26.2175713 -136.166641 0
-23.4423332 -136.122131 0
-23.4423332 -136.122131 4.34541845
-26.2175713 -136.166641 4.34541845
-26.2680244 -132.916122 0
-26.2680244 -132.916122 4.34541845
-23.5028782 -132.871597 0
-23.5028782 -132.871597 4.34541845
3 0 1 2
3 0 2 3
3 4 0 3
3 4 3 5
3 1 6 7
3 1 7 2
3 2 7 5
3 2 5 3
3 6 4 5
3 6 5 7
