ply
format ascii 1.0
comment Created by integrated-simworld2
element vertex 8
property float x
property float y
property float z
element face 10
property list uchar uint vertex_indices
end_header
204.678085 143.547333 0
205.273621 135.187256 0
205.273621 135.187256 4.45565844
204.678085 143.547333 4.45565844
220.168625 144.671906 0
220.168625 144.671906 4.45565844
220.774261 136.311829 0
220.774261 136.311829 4.45565844
3 0 1 2
3 0 2 3
3 4 0 3
3 4 3 5
3 1 6 7
3 1 7 2
3 2 7 5
3 2 5 3
3 6 4 5
3 6 5 7
