ply
format ascii 1.0
comment Created by integrated-simworld2
element vertex 8
property float x
property float y
property float z
element face 10
property list uchar uint vertex_indices
end_header
-48.1565704 12.7009659 0
-47.0767822 7.34649467 0
-47.0767822 7.34649467 4.18903732
-48.1565704 12.7009659 4.18903732
-45.4419098 13.2464218 0
-45.4419098 13.2464218 4.18903732
-44.3520279 7.90308285 0
-44.3520279 7.90308285 4.18903732
3 0 1 2
3 0 2 3
3 4 0 3
3 4 3 5
3 1 6 7
3 1 7 2
3 2 7 5
3 2 5 3
3 6 4 5
3 6 5 7
