ply
format ascii 1.0
comment Created by integrated-simworld2
element vertex 12
property float x
property float y
property float z
element face 16
property list uchar uint vertex_indices
end_header
110.263474 -119.590759 0
98.0726166 -118.577843 0
98.0726166 -118.577843 15.8229895
110.263474 -119.590759 15.8229895
106.883049 -160.278061 0
106.883049 -160.278061 15.8229895
96.9323425 -132.348068 0
96.9323425 -132.348068 15.8229895
87.8497467 -131.591156 15.8229895
85.6095428 -158.497101 15.8229895
87.8497467 -131.591156 0
85.6095428 -158.497101 0
3 0 1 2
3 0 2 3
3 4 0 3
3 4 3 5
3 1 6 7
3 1 7 2
3 2 7 8
3 2 8 9
3 2 9 5
3 2 5 3
3 6 10 8
3 6 8 7
3 10 11 9
3 10 9 8
3 11 4 5
3 11 5 9
