ply
format ascii 1.0
comment Created by integrated-simworld2
element vertex 16
property float x
property float y
property float z
element face 22
property list uchar uint vertex_indices
end_header
-125.589546 54.4017372 0
-105.769478 66.8359604 0
-105.769478 66.8359604 7.3566556
-125.589546 54.4017372 7.3566556
-134.207672 68.1275101 0
-134.207672 68.1275101 7.3566556
-109.4226 72.6579971 0
-109.4226 72.6579971 7.3566556
-115.729897 68.6839447 7.3566556
-116.96106 70.6543045 7.3566556
-122.723404 67.0364761 7.3566556
-126.467346 72.9921036 7.3566556
-115.729897 68.6839447 0
-116.96106 70.6543045 0
-122.723404 67.0364761 0
-126.467346 72.9921036 0
3 0 1 2
3 0 2 3
3 4 0 3
3 4 3 5
3 1 6 7
3 1 7 2
3 2 7 8
3 2 8 9
3 2 9 10
3 2 10 11
3 2 11 5
3 2 5 3
3 6 12 8
3 6 8 7
3 12 13 9
3 12 9 8
3 13 14 10
3 13 10 9
3 14 15 11
3 14 11 10
3 15 4 5
3 15 5 11
