ply
format ascii 1.0
comment Created by integrated-simworld2
element vertex 8
property float x
property float y
property float z
element face 10
property list uchar uint vertex_indices
end_header
-165.675247 -88.6211166 0
-171.609253 -92.9736328 0
-171.609253 -92.9736328 4.41479158
-165.675247 -88.6211166 4.41479158
-163.707397 -91.2928085 0
-163.707397 -91.2928085 4.41479158
-169.641388 -95.6564636 0
-169.641388 -95.6564636 4.41479158
3 0 1 2
3 0 2 3
3 4 0 3
3 4 3 5
3 1 6 7
3 1 7 2
3 2 7 5
3 2 5 3
3 6 4 5
3 6 5 7
