ply
format ascii 1.0
comment Created by integrated-simworld2
element vertex 16
property float x
property float y
property float z
element face 22
property list uchar uint vertex_indices
end_header
214.477188 -121.428215 0
219.312195 -129.220505 0
219.312195 -129.220505 15.6650934
214.477188 -121.428215 15.6650934
235.381012 -108.459152 0
235.381012 -108.459152 15.6650934
225.156387 -125.602524 0
225.156387 -125.602524 15.6650934
226.216248 -127.316826 15.6650934
232.989059 -123.119965 15.6650934
237.299179 -130.077362 15.6650934
245.586029 -124.934258 15.6650934
226.216248 -127.316826 0
232.989059 -123.119965 0
237.299179 -130.077362 0
245.586029 -124.934258 0
3 0 1 2
3 0 2 3
3 4 0 3
3 4 3 5
3 1 6 7
3 1 7 2
3 2 7 8
3 2 8 9
3 2 9 10
3 2 10 11
3 2 11 5
3 2 5 3
3 6 12 8
3 6 8 7
3 12 13 9
3 12 9 8
3 13 14 10
3 13 10 9
3 14 15 11
3 14 11 10
3 15 4 5
3 15 5 11
