ply
format ascii 1.0
comment Created by integrated-simworld2
element vertex 16
property float x
property float y
property float z
element face 20
property list uchar uint vertex_indices
end_header
-188.969604 -244.047012 0
-214.123337 -244.781342 0
-214.123337 -244.781342 15.2870712
-188.969604 -244.047012 15.2870712
-162.886963 -219.612717 0
-162.886963 -219.612717 15.2870712
-214.141937 -256 0
-214.141937 -256 15.2870712
-178.012787 -256 15.2870712
-177.472931 -255.691177 15.2870712
-153.77243 -232.024948 15.2870712
-152.298721 -229.587067 15.2870712
-178.012787 -256 0
-177.472931 -255.691177 0
-153.77243 -232.024948 0
-152.298721 -229.587067 0
3 0 1 2
3 0 2 3
3 4 0 3
3 4 3 5
3 1 6 7
3 1 7 2
3 2 7 8
3 2 8 9
3 2 9 10
3 2 10 11
3 2 11 5
3 2 5 3
3 12 13 9
3 12 9 8
3 13 14 10
3 13 10 9
3 14 15 11
3 14 11 10
3 15 4 5
3 15 5 11
