ply
format ascii 1.0
comment Created by integrated-simworld2
element vertex 8
property float x
property float y
property float z
element face 10
property list uchar uint vertex_indices
end_header
-48.342083 2.66916299 0
-19.8579903 -43.6732101 0
-19.8579903 -43.6732101 7.02321482
-48.342083 2.66916299 7.02321482
-28.4778385 15.2036819 0
-28.4778385 15.2036819 7.02321482
1.27809119 -30.1701717 0
1.27809119 -30.1701717 7.02321482
3 0 1 2
3 0 2 3
3 4 0 3
3 4 3 5
3 1 6 7
3 1 7 2
3 2 7 5
3 2 5 3
3 6 4 5
3 6 5 7
