ply
format ascii 1.0
comment Created by integrated-simworld2
element vertex 18
property float x
property float y
property float z
element face 23
property list uchar uint vertex_indices
end_header
-221.631744 -160.033707 0
-246.160034 -190.056152 0
-246.160034 -190.056152 29.7492828
-221.631744 -160.033707 29.7492828
-213.577057 -166.200928 0
-213.577057 -166.200928 29.7492828
-250.389252 -186.5495 0
-250.389252 -186.5495 29.7492828
-256 -193.382889 29.7492828
-256 -222.386353 29.7492828
-248.552841 -222.394409 29.7492828
-240.730026 -213.811829 29.7492828
-247.512924 -208.223465 29.7492828
-256 -193.382889 0
-256 -222.386353 0
-248.552841 -222.394409 0
-240.730026 -213.811829 0
-247.512924 -208.223465 0
3 0 1 2
3 0 2 3
3 4 0 3
3 4 3 5
3 1 6 7
3 1 7 2
3 2 7 8
3 2 8 9
3 2 9 10
3 2 10 11
3 2 11 12
3 2 12 5
3 2 5 3
3 6 13 8
3 6 8 7
3 14 15 10
3 14 10 9
3 15 16 11
3 15 11 10
3 16 17 12
3 16 12 11
3 17 4 5
3 17 5 12
