ply
format ascii 1.0
comment Created by integrated-simworld2
element vertex 36
property float x
property float y
property float z
element face 50
property list uchar uint vertex_indices
end_header
-256 18.1625557 0
-253.433792 17.7552109 0
-253.433792 17.7552109 19.2327728
-256 18.1625557 19.2327728
-251.001266 16.4304638 0
-251.001266 16.4304638 19.2327728
-256 27.6824226 19.2327728
-249.154175 14.3598881 19.2327728
-248.114578 11.7883883 19.2327728
-247.9935 9.01653099 19.2327728
-248.811127 6.3671422 19.2327728
-252.374207 4.47477579 19.2327728
-246.762314 -3.79636455 19.2327728
-242.734894 -0.156289026 19.2327728
-240.049911 4.57474232 19.2327728
-238.979904 9.89579487 19.2327728
-239.625793 15.2948017 19.2327728
-241.927048 20.2151642 19.2327728
-246.479187 24.623497 19.2327728
-250.425735 26.7720337 19.2327728
-255.623917 27.7294769 19.2327728
-255.623917 27.7294769 0
-256 27.6824226 0
-249.154175 14.3598881 0
-248.114578 11.7883883 0
-247.9935 9.01653099 0
-248.811127 6.3671422 0
-252.374207 4.47477579 0
-246.762314 -3.79636455 0
-242.734894 -0.156289026 0
-240.049911 4.57474232 0
-238.979904 9.89579487 0
-239.625793 15.2948017 0
-241.927048 20.2151642 0
-246.479187 24.623497 0
-250.425735 26.7720337 0
3 0 1 2
3 0 2 3
3 1 4 5
3 1 5 2
3 6 3 2
3 6 2 5
3 6 5 7
3 6 7 8
3 6 8 9
3 6 9 10
3 6 10 11
3 6 11 12
3 6 12 13
3 6 13 14
3 6 14 15
3 6 15 16
3 6 16 17
3 6 17 18
3 6 18 19
3 6 19 20
3 21 22 6
3 21 6 20
3 4 23 7
3 4 7 5
3 23 24 8
3 23 8 7
3 24 25 9
3 24 9 8
3 25 26 10
3 25 10 9
3 26 27 11
3 26 11 10
3 27 28 12
3 27 12 11
3 28 29 13
3 28 13 12
3 29 30 14
3 29 14 13
3 30 31 15
3 30 15 14
3 31 32 16
3 31 16 15
3 32 33 17
3 32 17 16
3 33 34 18
3 33 18 17
3 34 35 19
3 34 19 18
3 35 21 20
3 35 20 19
