ply
format ascii 1.0
comment Created by integrated-simworld2
element vertex 8
property float x
property float y
property float z
element face 10
property list uchar uint vertex_indices
end_header
121.373322 -166.970154 0
135.514557 -158.710114 0
135.514557 -158.710114 6.97821474
121.373322 -166.970154 6.97821474
116.397041 -158.454254 0
116.397041 -158.454254 6.97821474
130.548355 -150.194229 0
130.548355 -150.194229 6.97821474
3 0 1 2
3 0 2 3
3 4 0 3
3 4 3 5
3 1 6 7
3 1 7 2
3 2 7 5
3 2 5 3
3 6 4 5
3 6 5 7
