ply
format ascii 1.0
comment Created by integrated-simworld2
element vertex 30
property float x
property float y
property float z
element face 43
property list uchar uint vertex_indices
end_header
-30.1435337 -99.2772751 0
-36.0281372 -95.0359955 0
-36.0281372 -95.0359955 7.7124896
-30.1435337 -99.2772751 7.7124896
-34.7765427 -102.483269 0
-34.7765427 -102.483269 7.7124896
-65.5926056 -112.423988 0
-65.5926056 -112.423988 7.7124896
-72.3051071 -149.960892 7.7124896
-84.357048 -156.484146 7.7124896
-84.9425049 -159.512024 7.7124896
-124.136673 -184.836914 7.7124896
-123.137604 -208.458908 7.7124896
-113.932022 -200.12117 7.7124896
-91.6852875 -185.761124 7.7124896
-89.8179474 -186.206406 7.7124896
-52.2287483 -161.961212 7.7124896
-46.162323 -134.120239 7.7124896
-25.8335533 -111.555824 7.7124896
-72.3051071 -149.960892 0
-84.357048 -156.484146 0
-84.9425049 -159.512024 0
-124.136673 -184.836914 0
-123.137604 -208.458908 0
-113.932022 -200.12117 0
-91.6852875 -185.761124 0
-89.8179474 -186.206406 0
-52.2287483 -161.961212 0
-46.162323 -134.120239 0
-25.8335533 -111.555824 0
3 0 1 2
3 0 2 3
3 4 0 3
3 4 3 5
3 1 6 7
3 1 7 2
3 2 7 8
3 2 8 9
3 2 9 10
3 2 10 11
3 2 11 12
3 2 12 13
3 2 13 14
3 2 14 15
3 2 15 16
3 2 16 17
3 2 17 18
3 2 18 5
3 2 5 3
3 6 19 8
3 6 8 7
3 19 20 9
3 19 9 8
3 20 21 10
3 20 10 9
3 21 22 11
3 21 11 10
3 22 23 12
3 22 12 11
3 23 24 13
3 23 13 12
3 24 25 14
3 24 14 13
3 25 26 15
3 25 15 14
3 26 27 16
3 26 16 15
3 27 28 17
3 27 17 16
3 28 29 18
3 28 18 17
3 29 4 5
3 29 5 18
