ply
format ascii 1.0
comment Created by integrated-simworld2
element vertex 10
property float x
property float y
property float z
element face 11
property list uchar uint vertex_indices
end_header
210.662323 -157.963333 0
220.130493 -173.392059 0
220.130493 -173.392059 18.2458591
210.662323 -157.963333 18.2458591
249.441986 -134.18483 0
249.441986 -134.18483 18.2458591
256 -151.408279 0
256 -151.408279 18.2458591
256 -144.879028 18.2458591
256 -144.879028 0
3 0 1 2
3 0 2 3
3 4 0 3
3 4 3 5
3 1 6 7
3 1 7 2
3 2 7 8
3 2 8 5
3 2 5 3
3 9 4 5
3 9 5 8
