ply
format ascii 1.0
comment Created by integrated-simworld2
element vertex 8
property float x
property float y
property float z
element face 10
property list uchar uint vertex_indices
end_header
58.5088272 5.02917576 0
27.2286491 53.5198479 0
27.2286491 53.5198479 15.6659956
58.5088272 5.02917576 15.6659956
13.4711914 -24.0253296 0
13.4711914 -24.0253296 15.6659956
-17.8088932 24.4543133 0
-17.8088932 24.4543133 15.6659956
3 0 1 2
3 0 2 3
3 4 0 3
3 4 3 5
3 1 6 7
3 1 7 2
3 2 7 5
3 2 5 3
3 6 4 5
3 6 5 7
