ply
format ascii 1.0
comment Created by integrated-simworld2
element vertex 12
property float x
property float y
property float z
element face 14
property list uchar uint vertex_indices
end_header
-256 -4.27926302 0
-253.414001 -4.01888227 0
-253.414001 -4.01888227 15.4121552
-256 -4.27926302 15.4121552
-249.265503 -2.1710546 0
-249.265503 -2.1710546 15.4121552
-256 2.77420831 15.4121552
-252.374207 4.47477579 15.4121552
-254.292023 3.19463706 15.4121552
-254.292023 3.19463706 0
-256 2.77420831 0
-252.374207 4.47477579 0
3 0 1 2
3 0 2 3
3 1 4 5
3 1 5 2
3 6 3 2
3 6 2 5
3 6 5 7
3 6 7 8
3 9 10 6
3 9 6 8
3 4 11 7
3 4 7 5
3 11 9 8
3 11 8 7
