ply
format ascii 1.0
comment Created by integrated-simworld2
element vertex 14
property float x
property float y
property float z
element face 19
property list uchar uint vertex_indices
end_header
45.9525108 -33.7879791 0
-5.37362576 -66.7831497 0
-5.37362576 -66.7831497 25.306654
45.9525108 -33.7879791 25.306654
46.709507 -25.3499584 0
46.709507 -25.3499584 25.306654
30.448885 -120.517036 0
30.448885 -120.517036 25.306654
88.0937576 -84.3379517 25.306654
56.6013031 -35.4354668 25.306654
56.9343567 -26.8749962 25.306654
88.0937576 -84.3379517 0
56.6013031 -35.4354668 0
56.9343567 -26.8749962 0
3 0 1 2
3 0 2 3
3 4 0 3
3 4 3 5
3 1 6 7
3 1 7 2
3 2 7 8
3 2 8 9
3 2 9 10
3 2 10 5
3 2 5 3
3 6 11 8
3 6 8 7
3 11 12 9
3 11 9 8
3 12 13 10
3 12 10 9
3 13 4 5
3 13 5 10
