ply
format ascii 1.0
comment Created by integrated-simworld2
element vertex 12
property float x
property float y
property float z
element face 16
property list uchar uint vertex_indices
end_header
203.122238 -152.386337 0
211.287979 -147.232117 0
211.287979 -147.232117 18.0741673
203.122238 -152.386337 18.0741673
192.796127 -136.000259 0
192.796127 -136.000259 18.0741673
205.554611 -138.137405 0
205.554611 -138.137405 18.0741673
216.17308 -131.446945 18.0741673
211.580338 -124.155586 18.0741673
216.17308 -131.446945 0
211.580338 -124.155586 0
3 0 1 2
3 0 2 3
3 4 0 3
3 4 3 5
3 1 6 7
3 1 7 2
3 2 7 8
3 2 8 9
3 2 9 5
3 2 5 3
3 6 10 8
3 6 8 7
3 10 11 9
3 10 9 8
3 11 4 5
3 11 5 9
