ply
format ascii 1.0
comment Created by integrated-simworld2
element vertex 16
property float x
property float y
property float z
element face 18
property list uchar uint vertex_indices
end_header
256 64.2792816 0
250.19545 60.8357925 0
250.19545 60.8357925 16.5915298
256 64.2792816 16.5915298
248.610718 63.4740372 0
248.610718 63.4740372 16.5915298
256 68.1856155 16.5915298
256 94.8007126 16.5915298
224.113464 74.6612244 16.5915298
249.529785 32.7164803 16.5915298
256 36.7617874 16.5915298
256 68.1856155 0
256 94.8007126 0
224.113464 74.6612244 0
249.529785 32.7164803 0
256 36.7617874 0
3 0 1 2
3 0 2 3
3 1 4 5
3 1 5 2
3 3 2 5
3 3 5 6
3 3 6 7
3 3 7 8
3 3 8 9
3 3 9 10
3 4 11 6
3 4 6 5
3 12 13 8
3 12 8 7
3 13 14 9
3 13 9 8
3 14 15 10
3 14 10 9
