ply
format ascii 1.0
comment Created by integrated-simworld2
element vertex 56
property float x
property float y
property float z
element face 82
property list uchar uint vertex_indices
end_header
-70.1136398 70.8635788 0
-31.3745232 92.65979 0
-31.3745232 92.65979 15.3790674
-70.1136398 70.8635788 15.3790674
-60.0605354 53.9207039 0
-60.0605354 53.9207039 15.3790674
-23.3602715 81.6725388 0
-23.3602715 81.6725388 15.3790674
-19.0806026 84.4666519 15.3790674
-16.2846947 80.5482025 15.3790674
0.480690092 91.7246704 15.3790674
-15.7295094 115.569313 15.3790674
-17.7784958 114.266876 15.3790674
-20.3826199 118.552681 15.3790674
-22.4316044 118.552689 15.3790674
-23.3602123 115.380081 15.3790674
-25.0357342 117.806847 15.3790674
-80.5402145 83.3425522 15.3790674
-78.4912415 79.8025742 15.3790674
-81.660614 80.9269257 15.3790674
-83.1544724 78.5001678 15.3790674
-81.1054993 74.7820816 15.3790674
-84.6382599 72.9119339 15.3790674
-83.3361969 71.0528946 15.3790674
-90.7852707 66.5778961 15.3790674
-88.9280777 63.6056557 15.3790674
-86.1321487 65.6539154 15.3790674
-75.1403656 46.6516151 15.3790674
-77.1893692 45.1599464 15.3790674
-64.8954849 26.7253723 15.3790674
-42.9216881 43.3007584 15.3790674
-52.4196854 58.1953392 15.3790674
-19.0806026 84.4666519 0
-16.2846947 80.5482025 0
0.480690092 91.7246704 0
-15.7295094 115.569313 0
-17.7784958 114.266876 0
-20.3826199 118.552681 0
-22.4316044 118.552689 0
-23.3602123 115.380081 0
-25.0357342 117.806847 0
-80.5402145 83.3425522 0
-78.4912415 79.8025742 0
-81.660614 80.9269257 0
-83.1544724 78.5001678 0
-81.1054993 74.7820816 0
-84.6382599 72.9119339 0
-83.3361969 71.0528946 0
-90.7852707 66.5778961 0
-88.9280777 63.6056557 0
-86.1321487 65.6539154 0
-75.1403656 46.6516151 0
-77.1893692 45.1599464 0
-64.8954849 26.7253723 0
-42.9216881 43.3007584 0
-52.4196854 58.1953392 0
3 0 1 2
3 0 2 3
3 4 0 3
3 4 3 5
3 1 6 7
3 1 7 2
3 2 7 8
3 2 8 9
3 2 9 10
3 2 10 11
3 2 11 12
3 2 12 13
3 2 13 14
3 2 14 15
3 2 15 16
3 2 16 17
3 2 17 18
3 2 18 19
3 2 19 20
3 2 20 21
3 2 21 22
3 2 22 23
3 2 23 24
3 2 24 25
3 2 25 26
3 2 26 27
3 2 27 28
3 2 28 29
3 2 29 30
3 2 30 31
3 2 31 5
3 2 5 3
3 6 32 8
3 6 8 7
3 32 33 9
3 32 9 8
3 33 34 10
3 33 10 9
3 34 35 11
3 34 11 10
3 35 36 12
3 35 12 11
3 36 37 13
3 36 13 12
3 37 38 14
3 37 14 13
3 38 39 15
3 38 15 14
3 39 40 16
3 39 16 15
3 40 41 17
3 40 17 16
3 41 42 18
3 41 18 17
3 42 43 19
3 42 19 18
3 43 44 20
3 43 20 19
3 44 45 21
3 44 21 20
3 45 46 22
3 45 22 21
3 46 47 23
3 46 23 22
3 47 48 24
3 47 24 23
3 48 49 25
3 48 25 24
3 49 50 26
3 49 26 25
3 50 51 27
3 50 27 26
3 51 52 28
3 51 28 27
3 52 53 29
3 52 29 28
3 53 54 30
3 53 30 29
3 54 55 31
3 54 31 30
3 55 4 5
3 55 5 31
