ply
format ascii 1.0
comment Created by integrated-simworld2
element vertex 18
property float x
property float y
property float z
element face 23
property list uchar uint vertex_indices
end_header
203.759125 -219.166885 0
203.668427 -228.350754 0
203.668427 -228.350754 16.3806019
203.759125 -219.166885 16.3806019
213.903366 -218.777115 0
213.903366 -218.777115 16.3806019
256 -231.876709 0
256 -231.876709 16.3806019
256 -205.507751 16.3806019
250.856461 -208.446045 16.3806019
254.783051 -214.190048 16.3806019
254.298615 -217.730026 16.3806019
214.862213 -214.858658 16.3806019
256 -205.507751 0
250.856461 -208.446045 0
254.783051 -214.190048 0
254.298615 -217.730026 0
214.862213 -214.858658 0
3 0 1 2
3 0 2 3
3 4 0 3
3 4 3 5
3 1 6 7
3 1 7 2
3 2 7 8
3 2 8 9
3 2 9 10
3 2 10 11
3 2 11 12
3 2 12 5
3 2 5 3
3 13 14 9
3 13 9 8
3 14 15 10
3 14 10 9
3 15 16 11
3 15 11 10
3 16 17 12
3 16 12 11
3 17 4 5
3 17 5 12
