ply
format ascii 1.0
comment Created by integrated-simworld2
element vertex 12
property float x
property float y
property float z
element face 16
property list uchar uint vertex_indices
end_header
105.616859 -147.678619 0
113.378883 -143.103333 0
113.378883 -143.103333 4.80090714
105.616859 -147.678619 4.80090714
98.530983 -135.667297 0
98.530983 -135.667297 4.80090714
111.067398 -139.173767 0
111.067398 -139.173767 4.80090714
117.64846 -135.288666 4.80090714
112.884163 -127.206909 4.80090714
117.64846 -135.288666 0
112.884163 -127.206909 0
3 0 1 2
3 0 2 3
3 4 0 3
3 4 3 5
3 1 6 7
3 1 7 2
3 2 7 8
3 2 8 9
3 2 9 5
3 2 5 3
3 6 10 8
3 6 8 7
3 10 11 9
3 10 9 8
3 11 4 5
3 11 5 9
