ply
format ascii 1.0
comment Created by integrated-simworld2
element vertex 18
property float x
property float y
property float z
element face 25
property list uchar uint vertex_indices
end_header
54.946537 -182.499649 0
46.3365326 -170.733215 0
46.3365326 -170.733215 13.5486097
54.946537 -182.499649 13.5486097
44.3178406 -187.097183 0
44.3178406 -187.097183 13.5486097
25.180088 -181.932007 0
25.180088 -181.932007 13.5486097
35.1325874 -209.016022 13.5486097
46.9322128 -214.760071 13.5486097
59.2566872 -210.830444 13.5486097
58.7721214 -195.524017 13.5486097
47.6689949 -196.481415 13.5486097
35.1325874 -209.016022 0
46.9322128 -214.760071 0
59.2566872 -210.830444 0
58.7721214 -195.524017 0
47.6689949 -196.481415 0
3 0 1 2
3 0 2 3
3 4 0 3
3 4 3 5
3 1 6 7
3 1 7 2
3 2 7 8
3 2 8 9
3 2 9 10
3 2 10 11
3 2 11 12
3 2 12 5
3 2 5 3
3 6 13 8
3 6 8 7
3 13 14 9
3 13 9 8
3 14 15 10
3 14 10 9
3 15 16 11
3 15 11 10
3 16 17 12
3 16 12 11
3 17 4 5
3 17 5 12
