ply
format ascii 1.0
comment Created by integrated-simworld2
element vertex 20
property float x
property float y
property float z
element face 26
property list uchar uint vertex_indices
end_header
-214.141937 -256 0
-214.123337 -244.781342 0
-214.123337 -244.781342 15.2821627
-214.141937 -256 15.2821627
-221.300018 -244.73671 0
-221.300018 -244.73671 15.2821627
-221.289795 -236.465668 15.2821627
-239.710953 -236.431961 15.2821627
-239.72113 -241.318893 15.2821627
-246.817062 -241.296494 15.2821627
-246.827194 -243.979294 15.2821627
-249.895706 -243.968109 15.2821627
-249.913086 -256 15.2821627
-221.289795 -236.465668 0
-239.710953 -236.431961 0
-239.72113 -241.318893 0
-246.817062 -241.296494 0
-246.827194 -243.979294 0
-249.895706 -243.968109 0
-249.913086 -256 0
3 0 1 2
3 0 2 3
3 1 4 5
3 1 5 2
3 3 2 5
3 3 5 6
3 3 6 7
3 3 7 8
3 3 8 9
3 3 9 10
3 3 10 11
3 3 11 12
3 4 13 6
3 4 6 5
3 13 14 7
3 13 7 6
3 14 15 8
3 14 8 7
3 15 16 9
3 15 9 8
3 16 17 10
3 16 10 9
3 17 18 11
3 17 11 10
3 18 19 12
3 18 12 11
